<?xml version="1.0" encoding="iso-8859-1"?>
<!-- Generator: Adobe Illustrator 18.1.1, SVG Export Plug-In . SVG Version: 6.00 Build 0)  -->
<svg version="1.1" id="Capa_1" xmlns="http://www.w3.org/2000/svg" xmlns:xlink="http://www.w3.org/1999/xlink" x="0px" y="0px"
	 viewBox="0 0 612 612" style="enable-background:new 0 0 612 612;" xml:space="preserve">
<g>
	<g>
		<path d="M430.34,112.424C424.034,49.386,370.683,0,306.001,0c-64.672,0-118.024,49.386-124.33,112.424
			c-38.846,5.711-68.768,39.264-68.768,79.67c0,39.05,27.953,71.674,64.895,78.974L283.936,595.99
			c3.12,9.546,12.026,16.01,22.065,16.01c10.048,0,18.954-6.464,22.065-16.01l106.137-324.922
			c36.942-7.299,64.895-39.923,64.895-78.974C499.108,151.688,469.186,118.136,430.34,112.424z M264.155,75.566
			c8.562-23.839,34.825-36.227,58.673-27.693c23.82,8.572,36.218,34.834,27.702,58.682c-8.572,23.857-34.797,36.246-58.664,27.702
			C268,125.713,255.611,99.432,264.155,75.566z M284.939,195.382c-2.461,6.863-10.011,10.429-16.846,7.968
			c-6.844-2.461-10.41-10.02-7.968-16.883c2.433-6.854,10.011-10.42,16.855-7.968C283.852,180.96,287.437,188.519,284.939,195.382z
			 M226.312,135.724c4.365-12.24,17.803-18.583,30.024-14.199c12.24,4.374,18.61,17.849,14.218,30.07
			c-4.365,12.221-17.84,18.592-30.07,14.19C228.243,161.402,221.892,147.936,226.312,135.724z M261.555,377.939l-36.515-111.802
			c9.138-3.9,17.515-9.454,24.684-16.493c12.565,12.351,28.817,20.161,46.452,22.316L261.555,377.939z M306.001,514.016
			l-20.022-61.311l62.871-192.494c4.811-3.037,9.333-6.538,13.438-10.577c7.16,7.049,15.546,12.602,24.675,16.493L306.001,514.016z"
			/>
	</g>
	<g>
	</g>
	<g>
	</g>
	<g>
	</g>
	<g>
	</g>
	<g>
	</g>
	<g>
	</g>
	<g>
	</g>
	<g>
	</g>
	<g>
	</g>
	<g>
	</g>
	<g>
	</g>
	<g>
	</g>
	<g>
	</g>
	<g>
	</g>
	<g>
	</g>
</g>
<g>
</g>
<g>
</g>
<g>
</g>
<g>
</g>
<g>
</g>
<g>
</g>
<g>
</g>
<g>
</g>
<g>
</g>
<g>
</g>
<g>
</g>
<g>
</g>
<g>
</g>
<g>
</g>
<g>
</g>
</svg>
