<?xml version="1.0" encoding="iso-8859-1"?>
<!-- Generator: Adobe Illustrator 18.1.1, SVG Export Plug-In . SVG Version: 6.00 Build 0)  -->
<svg version="1.1" id="Capa_1" xmlns="http://www.w3.org/2000/svg" xmlns:xlink="http://www.w3.org/1999/xlink" x="0px" y="0px"
	 viewBox="0 0 316.586 316.586" style="enable-background:new 0 0 316.586 316.586;" xml:space="preserve">
<g>
	<g>
		<path style="fill:#010002;" d="M62.74,151.793c-2.535-6.288-1.556-11.357-0.31-14.348c1.224-2.948,3.998-7.158,10.03-9.823
			c0.789-0.348,1.659-0.653,2.562-0.941c0.827-0.261,1.735-0.468,2.66-0.674c2.442-0.538,5.156-0.908,8.392-0.908h31.318h81.804
			h31.318c3.236,0,5.945,0.375,8.392,0.908c0.925,0.201,1.838,0.413,2.66,0.674c0.903,0.288,1.773,0.593,2.562,0.941
			c6.032,2.665,8.811,6.875,10.03,9.823c1.24,2.997,2.219,8.061-0.31,14.348c16.915-5.803,29.094-21.811,29.094-40.701
			c0-20.097-13.783-36.926-32.401-41.674c-0.984-0.25-1.969-0.479-2.975-0.664c-0.963-0.174-1.925-0.337-2.91-0.446
			C235.381,29.164,200.283,0,158.293,0S81.205,29.164,71.932,68.315c-0.984,0.109-1.947,0.272-2.91,0.446
			c-1.006,0.179-1.996,0.413-2.975,0.664c-18.612,4.748-32.401,21.582-32.401,41.674C33.646,129.983,45.824,145.99,62.74,151.793z"
			/>
		<polygon style="fill:#010002;" points="208.392,230.921 158.293,203.372 108.194,230.921 112.583,241.968 158.293,267.107 
			204.003,241.968 		"/>
		<path style="fill:#010002;" d="M158.293,316.586c6.962,0,13.919-2.654,19.233-7.963l6.043-15.202l-25.275-13.902l-25.27,13.897
			l6.043,15.202C144.375,313.932,151.331,316.586,158.293,316.586z"/>
		<polygon style="fill:#010002;" points="197.694,257.85 169.579,273.313 187.61,283.228 		"/>
		<polygon style="fill:#010002;" points="147.007,273.313 118.893,257.85 128.977,283.228 		"/>
		<polygon style="fill:#010002;" points="147.007,197.166 80.183,160.414 104.147,220.734 		"/>
		<polygon style="fill:#010002;" points="236.403,160.414 169.579,197.166 212.439,220.734 		"/>
		<path style="fill:#010002;" d="M239.014,137.287c-0.816-0.31-1.724-0.566-2.714-0.767c-0.897-0.185-1.844-0.332-2.883-0.419
			c-0.919-0.076-1.882-0.125-2.91-0.125H204.77h-92.959H86.073c-1.028,0-1.991,0.049-2.91,0.125
			c-1.039,0.087-1.985,0.239-2.883,0.419c-0.99,0.201-1.898,0.457-2.714,0.767c-3.405,1.289-5.281,3.465-5.515,6.244l16.323,8.98
			l1.175,0.647l9.1,5.004l33.369,18.351l8.991,4.944l17.285,9.502l17.28-9.502l8.991-4.944l33.369-18.351l9.1-5.004l1.175-0.647
			l16.328-8.98C244.296,140.752,242.425,138.576,239.014,137.287z"/>
	</g>
</g>
<g>
</g>
<g>
</g>
<g>
</g>
<g>
</g>
<g>
</g>
<g>
</g>
<g>
</g>
<g>
</g>
<g>
</g>
<g>
</g>
<g>
</g>
<g>
</g>
<g>
</g>
<g>
</g>
<g>
</g>
</svg>
